<mxfile host="app.diagrams.net" modified="2022-09-02T04:39:28.871Z" agent="5.0 (Windows NT 10.0; Win64; x64) AppleWebKit/537.36 (KHTML, like Gecko) Chrome/104.0.0.0 Safari/537.36" etag="dLt-_v_TZojce6FGoUg2" version="20.2.7" type="github">
  <diagram id="kgpKYQtTHZ0yAKxKKP6v" name="Page-1">
    <mxGraphModel dx="1363" dy="722" grid="1" gridSize="10" guides="1" tooltips="1" connect="1" arrows="1" fold="1" page="1" pageScale="1" pageWidth="3300" pageHeight="4681" math="0" shadow="0">
      <root>
        <mxCell id="0" />
        <mxCell id="1" parent="0" />
        <mxCell id="G0KRUk1ZOz812LSKauy0-37" value="" style="edgeStyle=orthogonalEdgeStyle;rounded=0;orthogonalLoop=1;jettySize=auto;html=1;" parent="1" source="G0KRUk1ZOz812LSKauy0-32" edge="1">
          <mxGeometry relative="1" as="geometry">
            <mxPoint x="430" y="175.60000000000002" as="targetPoint" />
          </mxGeometry>
        </mxCell>
        <mxCell id="G0KRUk1ZOz812LSKauy0-32" value="发起保留申请" style="rounded=0;whiteSpace=wrap;html=1;" parent="1" vertex="1">
          <mxGeometry x="260" y="160.6" width="100" height="30" as="geometry" />
        </mxCell>
        <mxCell id="G0KRUk1ZOz812LSKauy0-35" style="edgeStyle=orthogonalEdgeStyle;rounded=0;orthogonalLoop=1;jettySize=auto;html=1;" parent="1" target="G0KRUk1ZOz812LSKauy0-32" edge="1">
          <mxGeometry relative="1" as="geometry">
            <mxPoint x="190" y="176" as="sourcePoint" />
          </mxGeometry>
        </mxCell>
        <mxCell id="G0KRUk1ZOz812LSKauy0-34" value="" style="shadow=0;dashed=0;html=1;strokeColor=none;fillColor=#4495D1;labelPosition=center;verticalLabelPosition=bottom;verticalAlign=top;align=center;outlineConnect=0;shape=mxgraph.veeam.company_administrator;" parent="1" vertex="1">
          <mxGeometry x="150" y="151.2" width="44.4" height="48.8" as="geometry" />
        </mxCell>
        <mxCell id="G0KRUk1ZOz812LSKauy0-39" style="edgeStyle=orthogonalEdgeStyle;rounded=0;orthogonalLoop=1;jettySize=auto;html=1;" parent="1" source="G0KRUk1ZOz812LSKauy0-38" edge="1">
          <mxGeometry relative="1" as="geometry">
            <mxPoint x="560" y="176" as="targetPoint" />
          </mxGeometry>
        </mxCell>
        <mxCell id="G0KRUk1ZOz812LSKauy0-67" style="edgeStyle=orthogonalEdgeStyle;rounded=0;orthogonalLoop=1;jettySize=auto;html=1;entryX=0.5;entryY=0;entryDx=0;entryDy=0;" parent="1" source="G0KRUk1ZOz812LSKauy0-38" target="G0KRUk1ZOz812LSKauy0-44" edge="1">
          <mxGeometry relative="1" as="geometry" />
        </mxCell>
        <mxCell id="G0KRUk1ZOz812LSKauy0-38" value="是否已销户" style="rhombus;whiteSpace=wrap;html=1;" parent="1" vertex="1">
          <mxGeometry x="430" y="136" width="80" height="80" as="geometry" />
        </mxCell>
        <mxCell id="G0KRUk1ZOz812LSKauy0-40" value="提示状态非法" style="rounded=0;whiteSpace=wrap;html=1;" parent="1" vertex="1">
          <mxGeometry x="560" y="160.6" width="100" height="30" as="geometry" />
        </mxCell>
        <mxCell id="G0KRUk1ZOz812LSKauy0-41" value="是" style="text;html=1;strokeColor=none;fillColor=none;align=center;verticalAlign=middle;whiteSpace=wrap;rounded=0;" parent="1" vertex="1">
          <mxGeometry x="500" y="151.2" width="60" height="30" as="geometry" />
        </mxCell>
        <mxCell id="G0KRUk1ZOz812LSKauy0-43" value="提示已存在&lt;br&gt;已在途单据" style="rounded=0;whiteSpace=wrap;html=1;" parent="1" vertex="1">
          <mxGeometry x="560" y="273" width="100" height="30" as="geometry" />
        </mxCell>
        <mxCell id="G0KRUk1ZOz812LSKauy0-46" style="edgeStyle=orthogonalEdgeStyle;rounded=0;orthogonalLoop=1;jettySize=auto;html=1;entryX=0;entryY=0.5;entryDx=0;entryDy=0;" parent="1" source="G0KRUk1ZOz812LSKauy0-44" target="G0KRUk1ZOz812LSKauy0-43" edge="1">
          <mxGeometry relative="1" as="geometry">
            <mxPoint x="560" y="290.9999999999999" as="targetPoint" />
          </mxGeometry>
        </mxCell>
        <mxCell id="G0KRUk1ZOz812LSKauy0-68" style="edgeStyle=orthogonalEdgeStyle;rounded=0;orthogonalLoop=1;jettySize=auto;html=1;entryX=0.5;entryY=0;entryDx=0;entryDy=0;" parent="1" source="G0KRUk1ZOz812LSKauy0-44" target="G0KRUk1ZOz812LSKauy0-54" edge="1">
          <mxGeometry relative="1" as="geometry" />
        </mxCell>
        <mxCell id="G0KRUk1ZOz812LSKauy0-44" value="是否已在途" style="rhombus;whiteSpace=wrap;html=1;" parent="1" vertex="1">
          <mxGeometry x="430" y="246" width="80" height="84" as="geometry" />
        </mxCell>
        <mxCell id="G0KRUk1ZOz812LSKauy0-45" value="否" style="text;html=1;strokeColor=none;fillColor=none;align=center;verticalAlign=middle;whiteSpace=wrap;rounded=0;" parent="1" vertex="1">
          <mxGeometry x="450" y="216" width="60" height="30" as="geometry" />
        </mxCell>
        <mxCell id="G0KRUk1ZOz812LSKauy0-47" value="是" style="text;html=1;strokeColor=none;fillColor=none;align=center;verticalAlign=middle;whiteSpace=wrap;rounded=0;" parent="1" vertex="1">
          <mxGeometry x="495" y="260" width="70" height="30" as="geometry" />
        </mxCell>
        <mxCell id="G0KRUk1ZOz812LSKauy0-58" style="edgeStyle=orthogonalEdgeStyle;rounded=0;orthogonalLoop=1;jettySize=auto;html=1;entryX=0.5;entryY=0;entryDx=0;entryDy=0;" parent="1" source="G0KRUk1ZOz812LSKauy0-54" target="G0KRUk1ZOz812LSKauy0-59" edge="1">
          <mxGeometry relative="1" as="geometry">
            <mxPoint x="470" y="436" as="targetPoint" />
          </mxGeometry>
        </mxCell>
        <mxCell id="G0KRUk1ZOz812LSKauy0-54" value="下推到保留申请单" style="rounded=0;whiteSpace=wrap;html=1;" parent="1" vertex="1">
          <mxGeometry x="420" y="366" width="100" height="30" as="geometry" />
        </mxCell>
        <mxCell id="G0KRUk1ZOz812LSKauy0-55" value="否" style="text;html=1;strokeColor=none;fillColor=none;align=center;verticalAlign=middle;whiteSpace=wrap;rounded=0;" parent="1" vertex="1">
          <mxGeometry x="450" y="330" width="60" height="30" as="geometry" />
        </mxCell>
        <mxCell id="G0KRUk1ZOz812LSKauy0-65" style="edgeStyle=orthogonalEdgeStyle;rounded=0;orthogonalLoop=1;jettySize=auto;html=1;" parent="1" source="G0KRUk1ZOz812LSKauy0-59" target="G0KRUk1ZOz812LSKauy0-63" edge="1">
          <mxGeometry relative="1" as="geometry" />
        </mxCell>
        <mxCell id="G0KRUk1ZOz812LSKauy0-59" value="保存" style="rounded=0;whiteSpace=wrap;html=1;" parent="1" vertex="1">
          <mxGeometry x="420" y="430" width="100" height="30" as="geometry" />
        </mxCell>
        <mxCell id="G0KRUk1ZOz812LSKauy0-77" value="" style="edgeStyle=orthogonalEdgeStyle;rounded=0;orthogonalLoop=1;jettySize=auto;html=1;" parent="1" source="G0KRUk1ZOz812LSKauy0-63" target="G0KRUk1ZOz812LSKauy0-74" edge="1">
          <mxGeometry relative="1" as="geometry" />
        </mxCell>
        <mxCell id="G0KRUk1ZOz812LSKauy0-80" style="edgeStyle=orthogonalEdgeStyle;rounded=0;orthogonalLoop=1;jettySize=auto;html=1;" parent="1" source="G0KRUk1ZOz812LSKauy0-63" target="G0KRUk1ZOz812LSKauy0-79" edge="1">
          <mxGeometry relative="1" as="geometry" />
        </mxCell>
        <mxCell id="G0KRUk1ZOz812LSKauy0-63" value="必填项校验&lt;br&gt;是否通过" style="rhombus;whiteSpace=wrap;html=1;" parent="1" vertex="1">
          <mxGeometry x="430" y="490" width="80" height="90" as="geometry" />
        </mxCell>
        <mxCell id="G0KRUk1ZOz812LSKauy0-73" value="是" style="text;html=1;strokeColor=none;fillColor=none;align=center;verticalAlign=middle;whiteSpace=wrap;rounded=0;" parent="1" vertex="1">
          <mxGeometry x="495" y="504" width="70" height="30" as="geometry" />
        </mxCell>
        <mxCell id="G0KRUk1ZOz812LSKauy0-81" style="edgeStyle=orthogonalEdgeStyle;rounded=0;orthogonalLoop=1;jettySize=auto;html=1;" parent="1" source="G0KRUk1ZOz812LSKauy0-74" edge="1">
          <mxGeometry relative="1" as="geometry">
            <mxPoint x="700" y="535" as="targetPoint" />
          </mxGeometry>
        </mxCell>
        <mxCell id="G0KRUk1ZOz812LSKauy0-74" value="保存成功" style="rounded=0;whiteSpace=wrap;html=1;" parent="1" vertex="1">
          <mxGeometry x="560" y="520" width="100" height="30" as="geometry" />
        </mxCell>
        <mxCell id="G0KRUk1ZOz812LSKauy0-79" value="保存失败" style="rounded=0;whiteSpace=wrap;html=1;" parent="1" vertex="1">
          <mxGeometry x="420" y="610" width="100" height="30" as="geometry" />
        </mxCell>
        <mxCell id="G0KRUk1ZOz812LSKauy0-83" style="edgeStyle=orthogonalEdgeStyle;rounded=0;orthogonalLoop=1;jettySize=auto;html=1;" parent="1" source="G0KRUk1ZOz812LSKauy0-82" edge="1">
          <mxGeometry relative="1" as="geometry">
            <mxPoint x="840" y="535" as="targetPoint" />
          </mxGeometry>
        </mxCell>
        <mxCell id="G0KRUk1ZOz812LSKauy0-82" value="提交" style="rounded=0;whiteSpace=wrap;html=1;" parent="1" vertex="1">
          <mxGeometry x="700" y="520" width="100" height="30" as="geometry" />
        </mxCell>
        <mxCell id="G0KRUk1ZOz812LSKauy0-87" style="edgeStyle=orthogonalEdgeStyle;rounded=0;orthogonalLoop=1;jettySize=auto;html=1;" parent="1" source="G0KRUk1ZOz812LSKauy0-84" edge="1">
          <mxGeometry relative="1" as="geometry">
            <mxPoint x="950" y="535" as="targetPoint" />
          </mxGeometry>
        </mxCell>
        <mxCell id="G0KRUk1ZOz812LSKauy0-89" style="edgeStyle=orthogonalEdgeStyle;rounded=0;orthogonalLoop=1;jettySize=auto;html=1;" parent="1" source="G0KRUk1ZOz812LSKauy0-84" edge="1">
          <mxGeometry relative="1" as="geometry">
            <mxPoint x="880" y="610" as="targetPoint" />
          </mxGeometry>
        </mxCell>
        <mxCell id="G0KRUk1ZOz812LSKauy0-84" value="销户日期&lt;br&gt;是否在2年内" style="rhombus;whiteSpace=wrap;html=1;" parent="1" vertex="1">
          <mxGeometry x="840" y="493" width="80" height="84" as="geometry" />
        </mxCell>
        <mxCell id="G0KRUk1ZOz812LSKauy0-85" value="否" style="text;html=1;strokeColor=none;fillColor=none;align=center;verticalAlign=middle;whiteSpace=wrap;rounded=0;" parent="1" vertex="1">
          <mxGeometry x="450" y="577" width="70" height="30" as="geometry" />
        </mxCell>
        <mxCell id="G0KRUk1ZOz812LSKauy0-86" value="是" style="text;html=1;strokeColor=none;fillColor=none;align=center;verticalAlign=middle;whiteSpace=wrap;rounded=0;" parent="1" vertex="1">
          <mxGeometry x="890" y="504" width="70" height="30" as="geometry" />
        </mxCell>
        <mxCell id="G0KRUk1ZOz812LSKauy0-88" value="提交至工作流" style="rounded=0;whiteSpace=wrap;html=1;" parent="1" vertex="1">
          <mxGeometry x="950" y="520" width="100" height="30" as="geometry" />
        </mxCell>
        <mxCell id="G0KRUk1ZOz812LSKauy0-90" value="提交失败" style="rounded=0;whiteSpace=wrap;html=1;" parent="1" vertex="1">
          <mxGeometry x="830" y="610" width="100" height="30" as="geometry" />
        </mxCell>
        <mxCell id="G0KRUk1ZOz812LSKauy0-91" value="是" style="text;html=1;strokeColor=none;fillColor=none;align=center;verticalAlign=middle;whiteSpace=wrap;rounded=0;" parent="1" vertex="1">
          <mxGeometry x="860" y="577" width="70" height="30" as="geometry" />
        </mxCell>
        <mxCell id="VfgPl0J1pApm8EDNWCgF-1" value="账户状态：销户中，变更中&lt;br&gt;保留申请单：未审核" style="whiteSpace=wrap;html=1;align=center;verticalAlign=middle;treeFolding=1;treeMoving=1;newEdgeStyle={&quot;edgeStyle&quot;:&quot;elbowEdgeStyle&quot;,&quot;startArrow&quot;:&quot;none&quot;,&quot;endArrow&quot;:&quot;none&quot;};" vertex="1" parent="1">
          <mxGeometry x="194.4" y="273" width="160" height="40" as="geometry" />
        </mxCell>
        <mxCell id="VfgPl0J1pApm8EDNWCgF-2" value="" style="edgeStyle=elbowEdgeStyle;elbow=vertical;startArrow=none;endArrow=none;rounded=0;exitX=0;exitY=0.5;exitDx=0;exitDy=0;" edge="1" target="VfgPl0J1pApm8EDNWCgF-1" parent="1" source="G0KRUk1ZOz812LSKauy0-44">
          <mxGeometry relative="1" as="geometry">
            <mxPoint x="410" y="275" as="sourcePoint" />
          </mxGeometry>
        </mxCell>
      </root>
    </mxGraphModel>
  </diagram>
</mxfile>
